<?xml version="1.0" encoding="UTF-8" standalone="no"?>
<!-- Created with Inkscape (http://www.inkscape.org/) -->

<svg
   version="1.1"
   id="svg1"
   width="580.00006"
   height="580"
   viewBox="0 0 580.00006 580"
   xmlns="http://www.w3.org/2000/svg"
   xmlns:svg="http://www.w3.org/2000/svg">
  <defs
     id="defs1" />
  <g
     id="g1"
     transform="translate(-636.39069,35.886696)">
    <path
       style="fill:#000000"
       d="m 812.39071,542.6352 c 0,-0.64109 0.7302,-3.30863 1.62267,-5.92788 l 1.62266,-4.76227 9.19801,0.68961 9.19801,0.6896 2.30755,-8.73503 2.30755,-8.73502 9.34899,0.48901 c 8.00535,0.41873 9.41484,0.2577 9.80711,-1.12045 0.25196,-0.8852 1.41121,-4.88855 2.57611,-8.89633 l 2.11799,-7.28687 7.69668,0.58645 c 14.78891,1.12685 14.19667,0.85104 14.19667,6.61155 v 5.03363 l -7.19324,-0.32895 -7.19323,-0.32894 -2.23016,7.72154 c -1.22658,4.24684 -2.48155,8.1283 -2.78882,8.62547 -0.30726,0.49717 -4.57972,0.67467 -9.49435,0.39445 l -8.93569,-0.50949 -2.1368,7.38401 c -1.17524,4.06121 -2.29615,7.87621 -2.49091,8.47777 -0.51308,1.58475 -29.5368,1.51413 -29.5368,-0.0719 z m 279.04849,0.52923 c -0.7984,-0.50504 -4.749,-1.22724 -8.7792,-1.6049 -8.6252,-0.80825 -8.8126,-1.02958 -9.5096,-11.23192 -0.2738,-4.00714 -0.769,-7.55699 -1.1006,-7.88855 -0.3316,-0.33157 -4.3875,-1.07174 -9.0131,-1.64483 l -8.4102,-1.04197 -0.6092,-5.06947 c -0.3351,-2.78822 -0.6131,-6.73042 -0.6179,-8.76046 -0.01,-2.03004 -0.4376,-3.95604 -0.9617,-4.28 -0.5242,-0.32396 -4.7497,-1.07912 -9.3901,-1.67812 l -8.4369,-1.08911 -0.6964,-9.28808 -0.6963,-9.28807 -7.0275,-0.70575 -7.0275,-0.70574 0.6791,-5.11894 c 0.3734,-2.81542 0.7622,-5.19122 0.8638,-5.27955 0.3086,-0.26823 20.0942,2.58384 21.4348,3.08981 0.7386,0.27877 1.25,2.2684 1.25,4.86357 0,2.4155 0.275,6.39801 0.6111,8.85002 l 0.611,4.45819 8.4171,1.04283 c 4.6294,0.57355 8.6883,1.3141 9.0199,1.64567 0.3316,0.33156 0.8268,3.88141 1.1006,7.88855 0.697,10.20234 0.8844,10.42367 9.5096,11.23192 4.0302,0.37766 7.8849,1.03105 8.566,1.45198 0.7434,0.45944 1.4823,4.22284 1.8488,9.41588 l 0.6105,8.65056 3.1027,0.50842 c 1.7065,0.27964 5.8027,0.85096 9.1027,1.2696 l 6,0.76118 0.3023,5.24808 0.3022,5.24808 -4.8022,-0.0153 c -2.6413,-0.008 -5.4555,-0.42853 -6.2538,-0.93357 z m 67.037,-1.12787 c -2.3676,-1.97124 -2.382,-2.0782 -0.7418,-5.51773 1.4747,-3.09262 1.8793,-3.35363 3.4203,-2.20652 0.9612,0.71555 4.1075,3.03071 6.9918,5.14481 2.8843,2.11409 5.2442,4.02659 5.2442,4.25 0,0.2234 -2.8125,0.39122 -6.25,0.37292 -4.7593,-0.0253 -6.8259,-0.51273 -8.6645,-2.04348 z M 749.89071,519.5489 c -4.95,-2.95686 -9.64993,-5.76022 -10.44429,-6.22969 -1.22452,-0.72371 -1.2441,-1.33686 -0.12868,-4.02974 0.72359,-1.74689 1.66872,-3.17616 2.10029,-3.17616 0.99571,0 18.04468,9.88036 19.7395,11.43959 0.9763,0.8982 1.0112,1.89875 0.15217,4.36294 -0.61305,1.75861 -1.40812,3.1551 -1.76682,3.10332 -0.35869,-0.0518 -4.70217,-2.51339 -9.65217,-5.47026 z m -90.20855,2.04491 c -5.04627,-2.1218 -5.90902,-8.06297 -1.65659,-11.40792 3.33462,-2.62301 6.38519,-2.63419 9.17658,-0.0336 2.53075,2.35776 2.84636,6.57688 0.71915,9.6139 -1.94525,2.77723 -4.58702,3.36324 -8.23914,1.82764 z m 303.04494,-17.77369 -15.16361,-8.11427 2.43046,-4.79627 c 1.33675,-2.63795 2.67204,-4.79627 2.96731,-4.79627 0.29527,0 7.66324,3.7125 16.37327,8.25 l 15.83641,8.25 -2.40696,4.75 c -1.32383,2.6125 -2.96188,4.70974 -3.64012,4.66054 -0.67823,-0.0492 -8.05677,-3.74089 -16.39676,-8.20373 z m 210.8669,-30.13588 c -1.8132,-1.28205 -3.5544,-2.58866 -3.8693,-2.90359 -0.7277,-0.72772 10.5417,-18.66734 11.7266,-18.66734 0.485,0 4.4847,1.31489 8.8882,2.92197 l 8.0064,2.92197 4.6259,-7.42197 c 2.5443,-4.08208 5.1872,-7.42197 5.8732,-7.42197 0.686,0 2.6644,0.49402 4.3965,1.09783 3.0146,1.0509 3.1492,1.33157 3.1492,6.56738 0,4.96044 -0.1808,5.41218 -1.9424,4.85307 -1.5847,-0.50295 -2.8279,0.77354 -6.75,6.93066 -2.6442,4.15094 -5.2576,7.54641 -5.8076,7.54549 -0.55,-9.3e-4 -4.5263,-1.31905 -8.8361,-2.92917 l -7.8362,-2.92748 -3.6638,5.9201 c -2.0152,3.25605 -3.8889,5.90299 -4.1639,5.88207 -0.275,-0.0209 -1.9835,-1.08697 -3.7967,-2.36902 z m -381.63209,-3.93901 c -3.04577,-2.87253 -3.5712,-4.01683 -3.5712,-7.77749 0,-5.0983 1.8457,-8.20616 6.21549,-10.46587 4.1035,-2.122 9.31141,-1.216 12.92816,2.24906 7.47118,7.15785 2.12811,19.36238 -8.47674,19.36238 -2.62817,0 -4.43272,-0.85655 -7.09571,-3.36808 z m -149.8212,-10.89205 -5.75,-2.12764 v -5.30612 c 0,-5.77039 0.35243,-6.02135 5.45947,-3.88749 l 3.39523,1.41862 5.13736,-7.82515 5.13736,-7.82515 7.96408,2.90653 c 4.38024,1.59859 8.35455,2.90653 8.83178,2.90653 0.47724,0 2.96293,-3.36164 5.52375,-7.47032 l 4.65605,-7.47032 8.13886,2.97032 c 4.47637,1.63368 8.45615,2.97032 8.84395,2.97032 0.38781,0 2.82669,-3.40395 5.41974,-7.56434 2.59306,-4.16039 5.22714,-7.37134 5.85351,-7.13544 0.62637,0.23589 5.29871,1.95234 10.38298,3.81434 5.08426,1.86199 9.24676,3.89298 9.25,4.51332 0.0106,2.02872 -2.99781,8.37212 -3.97052,8.37212 -0.52226,0 -3.23288,-0.9 -6.0236,-2 -2.79073,-1.1 -5.46081,-2 -5.93352,-2 -0.47271,0 -2.96302,3.375 -5.53402,7.5 -2.571,4.125 -4.83688,7.5 -5.03528,7.5 -0.19841,0 -4.02214,-1.35 -8.49718,-3 -4.47504,-1.65 -8.28417,-3 -8.46472,-3 -0.18055,0 -2.43182,3.375 -5.00282,7.5 -2.571,4.125 -4.99034,7.5 -5.37631,7.5 -0.38598,0 -4.20767,-1.35 -8.49266,-3 -4.28498,-1.65 -7.95278,-3 -8.15066,-3 -0.19788,0 -2.49776,3.375 -5.11084,7.5 -2.61309,4.125 -5.23503,7.47019 -5.82653,7.43376 -0.59151,-0.0364 -3.66296,-1.02368 -6.82546,-2.19389 z m 480.24999,-10.39562 c -0.825,-0.32935 -2.4994,-1.50771 -3.721,-2.61858 -7.7704,-7.06643 -2.4917,-19.72567 8.2253,-19.72567 2.8696,0 4.4557,0.75998 7.0957,3.4 2.8778,2.87777 3.4,4.10413 3.4,7.98422 0,6.16046 -3.7487,10.55985 -9.5,11.14905 -2.2,0.22538 -4.675,0.14032 -5.5,-0.18902 z m -191.98338,-4.63739 c -5.56831,-2.80135 -4.77686,-11.01213 1.26634,-13.13741 2.17599,-0.76525 3.27155,-0.54768 5.46906,1.08614 7.00234,5.20615 1.00128,15.9435 -6.7354,12.05127 z m -94.26391,-25.06531 c -2.06101,-1.17785 -3.74851,-2.44474 -3.75,-2.8153 -0.002,-0.53486 9.40029,-16.99321 10.72459,-18.77268 0.18272,-0.24553 4.05813,0.76697 8.61202,2.25 4.55388,1.48304 8.57039,2.69643 8.92558,2.69643 0.35519,0 2.54319,-3.19378 4.86222,-7.0973 2.31904,-3.90351 4.71754,-7.28959 5.33,-7.52461 0.61246,-0.23503 4.24571,0.70876 8.07389,2.0973 3.82819,1.38853 7.50494,2.52461 8.17056,2.52461 0.66562,0 3.03686,-3.12764 5.26942,-6.95031 2.23256,-3.82267 4.44671,-7.1898 4.92034,-7.48252 0.47363,-0.29272 4.14566,0.58492 8.16006,1.95031 4.01441,1.36538 7.87501,2.48252 8.57911,2.48252 0.70411,0 3.1564,-3.15812 5.44954,-7.01804 2.29314,-3.85993 4.51716,-7.23301 4.94228,-7.49575 0.42512,-0.26274 4.44696,0.83543 8.93742,2.44038 l 8.16448,2.91808 3.43634,-5.37186 c 1.88998,-2.95453 3.96719,-6.53697 4.61601,-7.96098 0.64882,-1.42401 1.66203,-2.4128 2.25156,-2.19731 0.58953,0.21549 5.45938,1.84498 10.82188,3.6211 5.3625,1.77612 9.75,3.33704 9.75,3.4687 0,0.6134 -3.21772,9.59568 -3.43745,9.59568 -0.1372,0 -2.86534,-0.9 -6.06255,-2 -3.19721,-1.1 -6.1728,-2 -6.61244,-2 -0.43964,0 -2.62598,3.12764 -4.85854,6.95031 -2.23256,3.82267 -4.48806,7.21536 -5.01223,7.53931 -0.52417,0.32396 -4.26371,-0.55368 -8.31009,-1.9503 -4.04638,-1.39663 -7.86588,-2.53932 -8.48777,-2.53932 -0.62189,0 -2.95735,3.12764 -5.18991,6.95031 -2.23256,3.82267 -4.44671,7.1898 -4.92034,7.48252 -0.47363,0.29272 -4.14566,-0.58492 -8.16006,-1.95031 -4.01441,-1.36538 -7.84382,-2.48252 -8.50981,-2.48252 -0.66598,0 -3.06899,3.12766 -5.34001,6.95035 -2.27102,3.8227 -4.49901,7.17896 -4.95109,7.45836 -0.45207,0.2794 -4.56404,-0.82947 -9.1377,-2.46415 -4.57367,-1.63468 -8.38637,-2.85344 -8.47268,-2.70835 -0.0863,0.14508 -2.10951,3.63879 -4.49599,7.76379 -2.38648,4.125 -4.41969,7.61012 -4.51824,7.74471 -0.0986,0.1346 -4.09177,-1.07781 -8.8738,-2.69424 l -8.6946,-2.93897 -2.31973,3.69425 c -1.27585,2.03184 -2.85649,4.70675 -3.51253,5.94425 -1.40945,2.65866 -1.53145,2.65659 -6.36974,-0.10845 z m 209.89549,-7.61723 c -5.9686,-2.69208 -11.0331,-5.07589 -11.2546,-5.29735 -0.2214,-0.22146 0.099,-1.84035 0.7111,-3.59753 0.8544,-2.45095 1.5442,-3.05827 2.9622,-2.6082 3.9434,1.25158 21.0451,9.26671 21.0643,9.87234 0.057,1.79577 -1.3777,6.60113 -1.9607,6.56592 -0.3687,-0.0223 -5.5538,-2.2431 -11.5223,-4.93518 z M 806.0457,374.28457 c -3.8303,-4.23243 -0.64044,-12.17126 4.89046,-12.17126 3.19637,0 7.45455,4.15047 7.45455,7.26598 0,5.68506 -8.56087,9.08671 -12.34501,4.90528 z m -53.90499,-9.86667 c -2.0625,-1.41635 -3.75,-3.00173 -3.75,-3.52307 0,-1.49812 18.21181,-29.78152 19.17645,-29.78152 1.94476,0 8.74929,5.3175 8.15396,6.37203 -3.54254,6.27505 -18.68222,29.61392 -19.18036,29.56786 -0.35753,-0.0331 -2.33755,-1.21895 -4.40005,-2.6353 z m 423.26629,-2.09035 c -3.0636,-2.48074 -3.0455,-7.9624 0.034,-10.45645 6.5401,-5.29586 15.2015,2.39081 10.2306,9.07926 -2.495,3.35698 -7.0633,3.96988 -10.2652,1.37719 z m -489.70158,-14.6779 c -3.79996,-1.65271 -6.31471,-6.06784 -6.31471,-11.08668 0,-2.84261 0.77945,-4.42911 3.52484,-7.1745 3.32006,-3.32006 3.82499,-3.496 8.69116,-3.02843 3.97324,0.38178 5.68921,1.10432 7.43058,3.12879 4.92817,5.72934 3.85701,13.02791 -2.54447,17.33715 -3.8774,2.61013 -6.26141,2.79216 -10.7874,0.82367 z m 353.69168,-4.52822 c -3.9635,-5.00437 -4.3755,-4.41942 11.4936,-16.31919 6.6,-4.94914 12.4899,-9.37366 13.0887,-9.83226 0.6885,-0.52732 2.2896,0.83846 4.3558,3.7156 1.7969,2.50218 3.107,4.67018 2.9113,4.81779 -0.1957,0.1476 -6.2058,4.69903 -13.3558,10.11428 -7.15,5.41525 -13.5133,10.23142 -14.1408,10.70259 -0.7426,0.55768 -2.2618,-0.55874 -4.3528,-3.19881 z M 868.93765,328.46795 c -5.47419,-1.33509 -10.1157,-2.59007 -10.31448,-2.78885 -0.19879,-0.19878 -0.0709,-1.91003 0.28418,-3.80278 l 0.6456,-3.44136 11.95015,2.70378 c 6.57258,1.48707 12.10774,2.8772 12.30035,3.08917 0.19262,0.21197 0.12747,1.8479 -0.14476,3.6354 -0.59924,3.93457 -1,3.95103 -14.72104,0.60464 z m 245.88415,-23.20237 c -0.8624,-3.10875 -1.7586,-6.24219 -1.9916,-6.96319 -0.3302,-1.02217 -2.4627,-1.16195 -9.6815,-0.63458 l -9.258,0.67636 -2.4001,-8.74384 -2.4001,-8.74383 -9.2555,0.48412 -9.2556,0.48413 -2.4439,-8.60572 -2.444,-8.60572 -9.5035,0.35954 -9.5035,0.35954 -0.6284,-3.1419 c -0.3456,-1.72804 -1.3619,-5.66522 -2.2585,-8.74929 l -1.6301,-5.6074 -9.2502,0.65022 -9.2502,0.65023 -2.4903,-8.76047 -2.4903,-8.76047 -7.0334,0.34886 -7.0335,0.34886 -0.4714,-4.34886 c -0.6252,-5.76635 0.8461,-6.84886 9.3086,-6.84886 3.6762,0 8.0449,-0.27219 9.7082,-0.60487 2.398,-0.47959 3.1354,-0.22072 3.5604,1.25 0.2948,1.02018 1.4864,5.12495 2.648,9.12172 l 2.112,7.26686 9.2027,-0.6429 9.2026,-0.6429 2.4027,8.76386 2.4027,8.76386 9.2367,-0.55107 9.2366,-0.55106 2.4571,8.66325 2.4571,8.66325 9.5077,-0.35447 9.5076,-0.35448 0.6274,3.13683 c 0.345,1.72526 1.3614,5.66181 2.2585,8.7479 l 1.6312,5.61107 9.245,-0.60729 9.245,-0.60728 3.084,10.68894 c 1.6961,5.87892 2.9617,10.81115 2.8123,10.96053 -0.1494,0.14937 -2.3733,0.90411 -4.9421,1.67719 l -4.6704,1.40561 z m -153.33469,-15.3631 c -4.07002,-2.18295 -6.57117,-6.45973 -6.45131,-11.03122 0.0895,-3.41143 0.74669,-4.72889 3.7171,-7.45107 5.11877,-4.691 10.4865,-4.65819 15.23781,0.0931 2.87777,2.87777 3.4,4.10413 3.4,7.98422 0,3.58824 -0.59747,5.25286 -2.75,7.66175 -3.18692,3.56648 -9.258,4.83261 -13.1536,2.7432 z m -283.46612,-4.03917 c -0.33163,-1.2375 -0.60912,-2.76008 -0.61663,-3.3835 -0.0142,-1.18202 7.49249,-2.1851 18.9801,-2.5362 l 6.49375,-0.19847 0.57656,3.54709 0.57657,3.5471 -8.97394,0.63699 c -15.05122,1.06837 -16.3508,0.94532 -17.03641,-1.61301 z m 141.36972,-21.25 c -1.925,-3.01932 -3.77561,-5.492 -4.11246,-5.49484 -0.33686,-0.003 -3.88625,1.34484 -7.88754,2.99484 -4.00129,1.65 -7.77568,2.99064 -8.38754,2.97919 -0.61185,-0.0114 -3.04143,-2.95689 -5.39906,-6.54543 -2.35763,-3.58854 -4.90661,-6.76254 -5.6644,-7.05333 -0.75778,-0.29079 -4.67029,0.85466 -8.69446,2.54543 -4.02417,1.69078 -7.60983,3.07414 -7.96814,3.07414 -0.35832,0 -2.61684,-2.99317 -5.01894,-6.65149 -2.4021,-3.65832 -4.62942,-7.05015 -4.94959,-7.53741 -0.32018,-0.48725 -4.35652,0.70592 -8.96965,2.6515 -4.61312,1.94557 -8.4658,3.5374 -8.56149,3.5374 -0.13542,0 -9.08136,-13.19929 -10.08369,-14.87799 -0.12413,-0.2079 -3.7306,1.03202 -8.01437,2.75537 -4.28377,1.72336 -8.28515,3.13095 -8.89196,3.128 -0.6068,-0.003 -3.19789,-3.15538 -5.75797,-7.00538 -2.56007,-3.85 -5.2136,-6.98193 -5.89671,-6.95984 -0.68312,0.0221 -3.71703,1.11537 -6.74203,2.42952 l -5.5,2.38936 -1.78674,-4.11258 c -0.98271,-2.26192 -1.59623,-4.60906 -1.36338,-5.21586 0.35858,-0.93445 17.99157,-8.5306 19.80213,-8.5306 0.33719,0 2.57843,2.99317 4.98053,6.65149 2.4021,3.65832 4.62865,7.04891 4.94789,7.53465 0.31924,0.48574 4.29661,-0.70743 8.83861,-2.65149 4.542,-1.94406 8.38711,-3.53465 8.54468,-3.53465 0.15756,0 2.61962,3.375 5.47123,7.5 2.85161,4.125 5.34718,7.5 5.54572,7.5 0.19853,0 4.0158,-1.54141 8.48282,-3.42536 l 8.12185,-3.42537 5.16215,7.42537 c 2.83918,4.08395 5.45808,7.42536 5.81979,7.42536 0.3617,0 3.93143,-1.35 7.93272,-3 4.00129,-1.65 7.6596,-3 8.12957,-3 0.46997,0 2.9491,3.15 5.50918,7 2.56007,3.85 5.29494,7 6.07748,7 0.78254,0 4.78983,-1.40169 8.90508,-3.11488 4.11525,-1.71318 7.61629,-2.95068 7.7801,-2.75 1.40941,1.72672 10.78476,16.18646 11.20506,17.28175 0.3346,0.87194 -0.91211,2.39823 -3.26472,3.99687 -2.09331,1.42244 -4.03906,2.58394 -4.32388,2.5811 -0.28483,-0.003 -2.09287,-2.47552 -4.01787,-5.49484 z m 345.16549,-6.5223 c -7.791,-5.51226 -14.1655,-10.32557 -14.1655,-10.69624 0,-1.22345 5.2537,-8.28146 6.1644,-8.28146 0.9083,0 25.227,17.10083 27.6795,19.46416 1.1202,1.07947 0.89,1.98082 -1.3829,5.41543 -1.4997,2.26622 -3.0425,4.12041 -3.4284,4.12041 -0.3859,0 -7.0761,-4.51003 -14.8671,-10.0223 z m -272.80141,1.85271 c -5.66345,-2.74229 -4.56635,-11.96816 1.58382,-13.31897 8.27626,-1.81777 12.51321,9.13027 5.03089,12.99953 -3.30172,1.70738 -3.70779,1.72699 -6.61471,0.31944 z m 191.09051,-42.28496 c -3.8762,-3.87616 -2.7038,-9.37117 2.4554,-11.50816 2.6175,-1.08421 3.448,-1.03275 5.5489,0.34383 4.0406,2.64751 4.8685,5.12677 3.0156,9.03136 -1.4625,3.08211 -3.7751,4.53703 -7.2699,4.57387 -0.7125,0.008 -2.4,-1.0909 -3.75,-2.4409 z M 955.97861,196.19825 c -3.07334,-6.00835 -5.5879,-11.15478 -5.5879,-11.43651 0,-0.28173 1.33591,-1.46349 2.96868,-2.62613 l 2.96868,-2.11389 5.53132,11.02914 c 3.04223,6.06603 5.53132,11.38961 5.53132,11.83019 0,0.44057 -1.31044,1.57514 -2.9121,2.52126 l -2.91209,1.72022 z m -297.95304,2.84248 c -3.44439,-2.70936 -3.52055,-7.13264 -0.18032,-10.47287 2.99863,-2.99864 5.45043,-3.10374 8.9106,-0.38197 1.91102,1.50321 2.63486,2.9942 2.63486,5.42742 0,3.5936 -3.64597,7.5 -7,7.5 -0.95166,0 -2.91597,-0.93266 -4.36514,-2.07258 z m 185.98585,-2.67742 c -0.28274,-0.9625 -0.79966,-3.36558 -1.1487,-5.34018 l -0.63463,-3.59018 16.33131,-3.21768 c 8.98222,-1.76972 17.04246,-3.42274 17.91165,-3.67336 1.23002,-0.35467 1.80278,0.77153 2.58381,5.08052 0.9427,5.20093 0.87728,5.56589 -1.08034,6.02651 -4.04698,0.95225 -31.90654,6.46437 -32.67244,6.46437 -0.42713,0 -1.00793,-0.7875 -1.29066,-1.75 z m 300.52378,-23.32445 c -2.6043,-1.15588 -4.1569,-2.43424 -3.8616,-3.17936 0.2717,-0.68541 2.4123,-5.4174 4.7568,-10.51556 3.2137,-6.98798 4.6564,-9.15163 5.8616,-8.79103 3.8936,1.16496 16.2641,3.71972 16.4951,3.40658 0.1404,-0.1904 1.8865,-3.83368 3.8802,-8.09618 1.9937,-4.2625 4.2095,-7.73463 4.9241,-7.71585 0.7146,0.0188 4.7917,0.8622 9.0601,1.87425 l 7.7609,1.8401 3.9766,-8.48603 c 2.8007,-5.97636 4.3941,-8.32588 5.3879,-7.9445 0.7762,0.29785 4.1568,1.08169 7.5125,1.74189 l 6.1013,1.20035 v 5.44935 5.44935 l -3.25,-0.65411 c -1.7875,-0.35976 -3.925,-0.82151 -4.75,-1.02611 -1.0438,-0.25887 -2.6718,2.15673 -5.3534,7.94325 l -3.8534,8.31525 -8.1466,-1.84292 c -4.4806,-1.01361 -8.5966,-1.84413 -9.1466,-1.84561 -0.55,-0.001 -2.575,3.57663 -4.5,7.95134 -1.925,4.37471 -3.95,7.96086 -4.5,7.96921 -0.55,0.008 -4.598,-0.84576 -8.9957,-1.89802 -4.3976,-1.05226 -8.0567,-1.83625 -8.1314,-1.7422 -0.075,0.0941 -1.5457,2.98351 -3.2688,6.42101 -1.7231,3.4375 -3.2389,6.21821 -3.3685,6.17936 -0.1296,-0.0388 -2.1956,-0.94056 -4.5911,-2.00381 z m -418.92232,-14.26943 -2.16328,-3.04505 5.22056,-2.88665 c 2.8713,-1.58766 7.89721,-4.25164 11.16869,-5.91995 l 5.94814,-3.0333 1.80186,2.2252 c 0.99102,1.22386 1.79272,2.73785 1.78154,3.36441 -0.0112,0.62657 -4.87444,3.65948 -10.80727,6.7398 l -10.78696,5.60059 z m 345.38642,-7.67636 c -0.8847,-2.21113 -1.5971,-4.57363 -1.5831,-5.25 0.021,-1.00565 30.9342,-13.84034 33.1305,-13.75519 1.0742,0.0416 3.9201,9.3519 3.0996,10.14011 -0.7898,0.75864 -31.2788,12.88499 -32.397,12.8852 -0.3528,7e-5 -1.3653,-1.80899 -2.25,-4.02012 z m -70.0945,-10.52522 c -4.1009,-6.4107 -3.77099,-6.3621 -14.69268,-2.16465 l -6.67858,2.56672 -4.24547,-7.02648 c -2.335,-3.86456 -4.86141,-7.26284 -5.61424,-7.55173 -0.75283,-0.28889 -4.92303,0.8251 -9.2671,2.47553 l -7.89833,3.00077 -4.99959,-7.85484 -4.9996,-7.85484 -6.80925,2.61591 c -10.92413,4.19673 -10.21291,4.38371 -15.57602,-4.0951 l -4.76677,-7.53602 -6.73323,2.60628 c -10.9753,4.24829 -10.19515,4.45157 -15.5882,-4.06187 -2.63895,-4.16582 -4.90332,-7.574224 -5.03194,-7.574224 -0.12863,0 -3.0971,1.12209 -6.5966,2.493544 -3.49951,1.37145 -6.43666,2.38395 -6.527,2.25 -0.8974,-1.33059 -3.46685,-9.099514 -3.12319,-9.443184 0.76528,-0.76528 18.57804,-7.30048 19.89303,-7.29841 0.68237,0.001 3.36431,3.33578 5.95986,7.41047 l 4.7192,7.408524 7.7808,-2.906844 c 4.27945,-1.59877 8.29673,-2.90848 8.9273,-2.91047 0.63058,-0.002 3.23833,3.35258 5.79502,7.454624 l 4.64852,7.45825 8.02321,-2.95825 c 4.41276,-1.62704 8.40806,-2.95825 8.87845,-2.95825 0.47039,0 2.97605,3.34788 5.56814,7.43973 l 4.71288,7.43973 8.05505,-2.93973 c 4.43028,-1.61685 8.39711,-2.93973 8.81519,-2.93973 0.41809,0 2.85978,3.2625 5.426,7.25 2.56621,3.9875 4.77589,7.37538 4.91041,7.52863 0.13451,0.15324 3.78392,-1.08426 8.10979,-2.75 4.32588,-1.66575 8.21034,-3.02863 8.63214,-3.02863 0.779,0 11.6386,16.32903 12.0527,18.12312 0.1243,0.53844 -1.6552,2.10824 -3.9545,3.48846 l -4.1806,2.50948 z m -190.01409,1.65128 c -7.38293,-3.21068 -8.96301,-13.50386 -2.94135,-19.16092 3.41851,-3.21152 11.10659,-3.44783 14.47438,-0.4449 5.41025,4.82411 5.66402,12.61762 0.56678,17.40623 -2.61703,2.45857 -8.8844,3.5979 -12.09981,2.19959 z m -171,-1.97966 c -2.81809,-0.59857 -3.01833,-0.95522 -3.30226,-5.88169 -0.24085,-4.17884 0.01,-5.24447 1.23226,-5.24447 0.94675,0 2.93525,-3.06428 5.19142,-8 4.03528,-8.82776 3.74995,-8.68419 12.87858,-6.48 9.34343,2.25606 9.15618,2.34527 13.06026,-6.22168 1.93037,-4.23593 3.61158,-7.8035 3.73602,-7.92794 0.27339,-0.27339 12.6911,2.28988 18.03156,3.72208 l 3.82785,1.02655 -0.68077,4.1905 c -0.37442,2.30477 -1.00724,4.54078 -1.40626,4.96891 -0.39903,0.42813 -3.59589,0.1088 -7.10414,-0.70961 -3.50824,-0.81842 -6.45815,-1.39371 -6.55533,-1.27842 -0.0972,0.11528 -2.00571,3.86578 -4.24117,8.33442 l -4.06446,8.12482 -7.80178,-1.86701 c -4.29098,-1.02686 -8.27418,-1.87053 -8.85156,-1.87482 -0.57738,-0.004 -2.80498,3.5922 -4.95022,7.9922 -2.14525,4.4 -4.37285,7.94676 -4.95023,7.88169 -0.57737,-0.0651 -2.39977,-0.40506 -4.04977,-0.75553 z m 343.5,-59.835604 c -5.14688,-1.89247 -6.76576,-8.5248 -3,-12.29056 5.55591,-5.555905 15.49258,2.86819 10.7182,9.08666 -1.09518,1.42643 -5.10775,4.0331 -5.90246,3.83439 -0.17366,-0.0434 -0.99074,-0.32714 -1.81574,-0.63049 z m 120.33289,-3.38786 c -1.7419,-0.5043 -4.3776,-2.3555 -5.857,-4.11377 -6.7643,-8.03881 2.0898,-21.067532 12.0771,-17.771429 10.73,3.541196 11.2445,17.244379 0.8112,21.603679 -1.815,0.75835 -3.4269,1.33824 -3.5821,1.28863 -0.1551,-0.0496 -1.7073,-0.5028 -3.4492,-1.00711 z m -349.26031,-6.53756 c -1.13992,-1.44917 -2.07258,-3.41348 -2.07258,-4.36514 0,-3.35403 3.9064,-7 7.5,-7 3.5936,0 7.5,3.64597 7.5,7 0,3.35403 -3.9064,7 -7.5,7 -2.43322,0 -3.92421,-0.72383 -5.42742,-2.63486 z m 423.56231,-9.43772 c -5.3308,-4.193207 -2.3476,-12.260753 4.5338,-12.260753 3.7361,0 6.8387,3.274818 6.816,7.194117 -0.019,3.198723 -0.8045,4.481796 -3.669,5.989512 -3.0975,1.630401 -4.676,1.440737 -7.6808,-0.922876 z M 905.23299,50.959771 894.57527,46.95659 l 0.87686,-3.057453 c 0.48228,-1.681599 1.09695,-3.277537 1.36594,-3.546528 0.69134,-0.691341 23.57264,7.897 23.57264,8.847831 0,2.106898 -2.09795,5.90417 -3.22525,5.837689 -0.70111,-0.04135 -6.07072,-1.876609 -11.93247,-4.078358 z m -76.12562,-1.62458 -3.68923,-3.778115 12.90678,-12.878124 12.90677,-12.878124 3.57951,3.376285 c 1.96873,1.856956 3.57951,3.846516 3.57951,4.421244 0,1.037822 -24.04211,25.514949 -25.06149,25.514949 -0.29294,0 -2.19277,-1.700152 -4.22185,-3.778115 z M 684.89071,29.648714 c -3.04812,-0.956259 -3.92368,-1.704711 -3.67926,-3.145146 0.68411,-4.0317 8.41792,-31.928486 9.03656,-32.595946 0.94243,-1.016809 9.22895,1.266883 9.77673,2.694383 0.25359,0.660835 -0.93736,6.333719 -2.64654,12.60641 -6.80188,24.962782 -5.3978,22.664488 -12.48749,20.440299 z m 340.70989,-12.812008 -2.1388,-2.276601 9.5925,-8.277457 9.5924,-8.277457 2.372,2.22837105 c 1.3046,1.22560495 2.372,2.56938495 2.372,2.98617795 0,0.995816 -17.5712,15.893566 -18.7457,15.893566 -0.4981,0 -1.8681,-1.02447 -3.0444,-2.2766 z M 766.06191,7.891979 c -4.37031,-1.158122 -4.3692,-0.252054 -0.0179,-14.625766 l 2.52691,-8.347092 9.1463,0.347092 9.14631,0.347093 2.26463,-7.917732 c 1.24555,-4.354752 2.48622,-8.13932 2.75705,-8.41015 0.62383,-0.623836 14.413,-0.258848 16.76628,0.443789 1.33984,0.400045 1.90768,-0.20846 2.375,-2.54508 0.5942,-2.970716 0.78945,-3.070827 5.98922,-3.070827 2.95625,0 5.37246,0.3375 5.36935,0.75 -0.003,0.4125 -1.0352,4.125 -2.29353,8.25 l -2.28789,7.5 -6.45646,-0.292366 c -3.55106,-0.160802 -7.62246,-0.518352 -9.04757,-0.794555 -2.47299,-0.479297 -2.69289,-0.146888 -4.82419,7.292366 -1.2282,4.287005 -2.41435,8.366866 -2.63588,9.066357 -0.30755,0.971081 -2.59542,1.119122 -9.67581,0.62609 l -9.27302,-0.645711 -1.87401,6.623909 c -1.0307,3.643151 -2.3807,6.577401 -3,6.520558 -0.61929,-0.05684 -2.84895,-0.559933 -4.95479,-1.117975 z m 175.749,-4.923222 c -5.26887,-2.55663295 -7.18466,-12.342586 -3.36655,-17.196524 1.1295,-1.435935 3.78555,-3.129682 5.90232,-3.763882 3.27959,-0.982589 4.41762,-0.875248 7.69635,0.725932 7.58766,3.705452 9.08092,12.491932 3.13374,18.439119 -2.35015,2.350152 -3.77704,2.926327 -7.11298,2.872224 -2.2952,-0.03722 -5.10899,-0.521816 -6.25288,-1.076869 z m 171.16339,-9.008639 c -0.3124,-2.390747 -0.684,-5.696812 -0.8258,-7.346812 -0.2568,-2.988197 -0.2925,-3.004567 -9.0853,-4.160876 -4.8552,-0.638481 -8.955,-1.313481 -9.1107,-1.5 -0.1557,-0.186518 -0.5567,-4.051624 -0.8912,-8.589124 l -0.608,-8.25 h 5.4687 5.4687 v 3.912109 3.912109 l 8.9502,1.223109 c 10.2998,1.407522 9.4913,0.250667 10.6237,15.202673 l 0.6627,8.75 -2.8683,0.01365 c -1.5776,0.0075 -3.8467,0.276075 -5.0425,0.596811 -1.9349,0.51898 -2.2367,0.104782 -2.7422,-3.763654 z m 56.8964,-23.4837 c -8.6649,-6.477817 -8.6399,-6.367032 -1.43,-6.329843 4.9197,0.02538 7.012,0.501404 8.8187,2.006389 2.1541,1.794412 2.2555,2.246198 1.1198,4.988187 -0.6869,1.658286 -1.5368,3.192996 -1.8887,3.410465 -0.3519,0.21747 -3.3308,-1.61637 -6.6198,-4.075198 z"
       id="path1" />
  </g>
</svg>
